<svg xmlns="http://www.w3.org/2000/svg" xmlns:xlink="http://www.w3.org/1999/xlink" width="120" zoomAndPan="magnify" viewBox="0 0 90 89.999999" height="120" preserveAspectRatio="xMidYMid meet" version="1.0"><defs><clipPath id="93ef913b15"><path d="M 14.496094 11.027344 L 28.511719 11.027344 L 28.511719 78.558594 L 14.496094 78.558594 Z M 14.496094 11.027344 " clip-rule="nonzero"/></clipPath><clipPath id="f8674f8ac7"><path d="M 0.00390625 35.140625 L 10.195312 35.140625 L 10.195312 54.253906 L 0.00390625 54.253906 Z M 0.00390625 35.140625 " clip-rule="nonzero"/></clipPath></defs><g clip-path="url(#93ef913b15)"><path fill="#000000" d="M 14.496094 18.359375 L 14.496094 71.226562 C 14.496094 71.699219 14.542969 72.167969 14.632812 72.632812 C 14.722656 73.097656 14.855469 73.550781 15.03125 73.988281 C 15.207031 74.425781 15.421875 74.839844 15.679688 75.234375 C 15.933594 75.625 16.222656 75.992188 16.550781 76.324219 C 16.875 76.660156 17.230469 76.960938 17.609375 77.222656 C 17.992188 77.484375 18.398438 77.707031 18.824219 77.886719 C 19.246094 78.070312 19.6875 78.207031 20.136719 78.296875 C 20.589844 78.390625 21.042969 78.4375 21.503906 78.4375 C 21.964844 78.4375 22.421875 78.390625 22.871094 78.296875 C 23.324219 78.207031 23.761719 78.070312 24.1875 77.886719 C 24.613281 77.707031 25.015625 77.484375 25.398438 77.222656 C 25.78125 76.960938 26.132812 76.660156 26.460938 76.324219 C 26.785156 75.992188 27.074219 75.625 27.332031 75.234375 C 27.585938 74.839844 27.800781 74.425781 27.980469 73.988281 C 28.15625 73.550781 28.289062 73.097656 28.378906 72.632812 C 28.46875 72.167969 28.511719 71.699219 28.511719 71.226562 L 28.511719 18.359375 C 28.511719 17.882812 28.46875 17.414062 28.378906 16.953125 C 28.289062 16.488281 28.15625 16.035156 27.980469 15.597656 C 27.800781 15.160156 27.585938 14.746094 27.332031 14.351562 C 27.074219 13.957031 26.785156 13.59375 26.460938 13.261719 C 26.132812 12.925781 25.78125 12.625 25.398438 12.363281 C 25.015625 12.101562 24.613281 11.878906 24.1875 11.695312 C 23.761719 11.515625 23.324219 11.378906 22.871094 11.285156 C 22.421875 11.195312 21.964844 11.148438 21.503906 11.148438 C 21.042969 11.148438 20.589844 11.195312 20.136719 11.285156 C 19.6875 11.378906 19.246094 11.515625 18.824219 11.695312 C 18.398438 11.878906 17.992188 12.101562 17.609375 12.363281 C 17.230469 12.625 16.875 12.925781 16.550781 13.261719 C 16.222656 13.59375 15.933594 13.957031 15.679688 14.351562 C 15.421875 14.746094 15.207031 15.160156 15.03125 15.597656 C 14.855469 16.035156 14.722656 16.488281 14.632812 16.953125 C 14.542969 17.414062 14.496094 17.882812 14.496094 18.359375 Z M 14.496094 18.359375 " fill-opacity="1" fill-rule="nonzero"/></g><path fill="#000000" d="M 52.261719 50.859375 L 63.21875 50.859375 C 80.53125 50.972656 89.902344 30.351562 78.101562 17.71875 C 74.414062 13.746094 69.214844 11.46875 63.832031 11.46875 L 51.105469 11.46875 L 51.105469 3.882812 C 51.152344 2.4375 49.359375 1.519531 48.234375 2.390625 C 48.234375 2.390625 29.71875 15.75 29.71875 15.75 C 28.765625 16.433594 28.765625 18.042969 29.71875 18.730469 L 48.234375 32.085938 C 49.363281 32.953125 51.148438 32.046875 51.105469 30.597656 C 51.105469 30.597656 51.105469 23.011719 51.105469 23.011719 L 63.832031 23.011719 C 74.730469 23.480469 74.480469 39.070312 63.386719 39.316406 C 63.386719 39.316406 52.261719 39.316406 52.261719 39.316406 C 44.71875 39.5 44.707031 50.667969 52.261719 50.859375 Z M 52.261719 50.859375 " fill-opacity="1" fill-rule="nonzero"/><path fill="#000000" d="M 52.261719 39.140625 L 63.21875 39.140625 C 80.53125 39.027344 89.902344 59.648438 78.101562 72.28125 C 74.414062 76.253906 69.214844 78.53125 63.832031 78.53125 L 51.105469 78.53125 L 51.105469 86.117188 C 51.152344 87.5625 49.359375 88.480469 48.234375 87.609375 C 48.234375 87.609375 29.71875 74.25 29.71875 74.25 C 28.765625 73.566406 28.765625 71.957031 29.71875 71.269531 L 48.234375 57.914062 C 49.363281 57.046875 51.148438 57.953125 51.105469 59.402344 C 51.105469 59.402344 51.105469 66.988281 51.105469 66.988281 L 63.832031 66.988281 C 74.730469 66.519531 74.480469 50.929688 63.386719 50.683594 C 63.386719 50.683594 52.261719 50.683594 52.261719 50.683594 C 44.71875 50.5 44.707031 39.332031 52.261719 39.140625 Z M 52.261719 39.140625 " fill-opacity="1" fill-rule="nonzero"/><g clip-path="url(#f8674f8ac7)"><path fill="#000000" d="M 7.976562 35.667969 L 0.433594 43.742188 C 0.316406 43.871094 0.222656 44.015625 0.160156 44.179688 C 0.09375 44.347656 0.0625 44.519531 0.0625 44.699219 C 0.0625 44.878906 0.09375 45.050781 0.160156 45.214844 C 0.222656 45.382812 0.316406 45.527344 0.433594 45.652344 L 7.976562 53.730469 C 8.160156 53.921875 8.375 54.042969 8.625 54.09375 C 8.871094 54.144531 9.113281 54.117188 9.347656 54.011719 C 9.582031 53.910156 9.769531 53.746094 9.914062 53.519531 C 10.054688 53.292969 10.125 53.046875 10.128906 52.773438 L 10.128906 36.621094 C 10.125 36.351562 10.054688 36.101562 9.914062 35.878906 C 9.769531 35.652344 9.582031 35.488281 9.347656 35.382812 C 9.113281 35.28125 8.871094 35.253906 8.625 35.304688 C 8.375 35.355469 8.160156 35.476562 7.976562 35.667969 Z M 7.976562 35.667969 " fill-opacity="1" fill-rule="nonzero"/></g></svg>